<svg version="1.0" xmlns="http://www.w3.org/2000/svg" width="32.000000" height="32.000000" viewBox="0 0 32.000000 32.000000" preserveAspectRatio="xMidYMid meet"><g transform="translate(0.000000,32.000000) scale(0.100000,-0.100000)" fill="#009FEB" stroke="none"><path d="M110 285 c13 -14 26 -25 28 -25 3 0 -5 11 -18 25 -13 14 -26 25 -28 25 -3 0 5 -11 18 -25z"/><path d="M199 283 l-24 -28 28 24 c25 23 32 31 24 31 -2 0 -14 -12 -28 -27z"/></g><g transform="translate(0.000000,32.000000) scale(0.100000,-0.100000)" fill="#00ACEB" stroke="none"><path d="M55 300 c-4 -6 -1 -17 5 -25 10 -12 9 -15 -8 -15 -41 0 -52 -25 -52 -120 0 -121 -1 -120 160 -120 161 0 160 -1 160 120 0 95 -11 120 -52 120 -17 0 -18 3 -8 15 13 16 6 35 -14 35 -7 0 -23 -11 -36 -25 -30 -32 -70 -32 -100 0 -25 27 -45 32 -55 15z m213 -92 c16 -16 16 -120 0 -136 -16 -16 -200 -16 -216 0 -16 16 -16 120 0 136 16 16 200 16 216 0z"/><path d="M80 150 c0 -23 4 -30 20 -30 16 0 20 7 20 30 0 23 -4 30 -20 30 -16 0 -20 -7 -20 -30z"/><path d="M200 150 c0 -23 4 -30 20 -30 16 0 20 7 20 30 0 23 -4 30 -20 30 -16 0 -20 -7 -20 -30z"/></g></svg>